<svg version="1.1" viewBox="0.0 0.0 600.0 371.0" fill="none" stroke="none" stroke-linecap="square" stroke-miterlimit="10" width="600" height="371" xmlns:xlink="http://www.w3.org/1999/xlink" xmlns="http://www.w3.org/2000/svg"><path fill="#ffffff" d="M0 0L600.0 0L600.0 371.0L0 371.0L0 0Z" fill-rule="nonzero"/><path stroke="#333333" stroke-width="1.0" stroke-linecap="butt" d="M59.5 88.5L59.5 300.5" fill-rule="nonzero"/><path stroke="#cccccc" stroke-width="1.0" stroke-linecap="butt" d="M221.5 88.5L221.5 300.5" fill-rule="nonzero"/><path stroke="#cccccc" stroke-width="1.0" stroke-linecap="butt" d="M384.5 88.5L384.5 300.5" fill-rule="nonzero"/><path stroke="#cccccc" stroke-width="1.0" stroke-linecap="butt" d="M547.5 88.5L547.5 300.5" fill-rule="nonzero"/><path stroke="#cccccc" stroke-width="1.0" stroke-linecap="butt" d="M52.5 300.5L581.5 300.5" fill-rule="nonzero"/><path stroke="#cccccc" stroke-width="1.0" stroke-linecap="butt" d="M52.5 229.5L581.5 229.5" fill-rule="nonzero"/><path stroke="#333333" stroke-width="1.0" stroke-linecap="butt" d="M52.5 159.5L581.5 159.5" fill-rule="nonzero"/><path stroke="#cccccc" stroke-width="1.0" stroke-linecap="butt" d="M52.5 88.5L581.5 88.5" fill-rule="nonzero"/><clipPath id="id_0"><path d="M52.55 88.28333L581.45 88.28333L581.45 300.45L52.55 300.45L52.55 88.28333Z" clip-rule="nonzero"/></clipPath><path stroke="#4285f4" stroke-width="2.0" stroke-linecap="butt" stroke-opacity="0.4" clip-path="url(#id_0)" d="M0 106.582L581.45 106.19863" fill-rule="nonzero"/><path stroke="#ea4335" stroke-width="2.0" stroke-linecap="butt" stroke-opacity="0.4" clip-path="url(#id_0)" d="M0 65.248566L581.45 313.47412" fill-rule="nonzero"/><path fill="#4285f4" clip-path="url(#id_0)" d="M90.98849 104.08211C90.98849 106.56739 88.97377 108.58211 86.48849 108.58211C84.003204 108.58211 81.98849 106.56739 81.98849 104.08211C81.98849 101.596825 84.003204 99.58211 86.48849 99.58211C88.97377 99.58211 90.98849 101.596825 90.98849 104.08211Z" fill-rule="nonzero"/><path fill="#4285f4" clip-path="url(#id_0)" d="M118.10749 106.50775C118.10749 108.993034 116.09277 111.00775 113.60749 111.00775C111.12221 111.00775 109.10749 108.993034 109.10749 106.50775C109.10749 104.02247 111.12221 102.00775 113.60749 102.00775C116.09277 102.00775 118.10749 104.02247 118.10749 106.50775Z" fill-rule="nonzero"/><path fill="#4285f4" clip-path="url(#id_0)" d="M145.22649 105.468185C145.22649 107.95347 143.21178 109.968185 140.72649 109.968185C138.24121 109.968185 136.22649 107.95347 136.22649 105.468185C136.22649 102.98291 138.24121 100.968185 140.72649 100.968185C143.21178 100.968185 145.22649 102.98291 145.22649 105.468185Z" fill-rule="nonzero"/><path fill="#4285f4" clip-path="url(#id_0)" d="M172.34549 104.42863C172.34549 106.91391 170.33078 108.92863 167.84549 108.92863C165.36021 108.92863 163.34549 106.91391 163.34549 104.42863C163.34549 101.943344 165.36021 99.92863 167.84549 99.92863C170.33078 99.92863 172.34549 101.943344 172.34549 104.42863Z" fill-rule="nonzero"/><path fill="#4285f4" clip-path="url(#id_0)" d="M199.4645 105.468185C199.4645 107.95347 197.44977 109.968185 194.9645 109.968185C192.47922 109.968185 190.4645 107.95347 190.4645 105.468185C190.4645 102.98291 192.47922 100.968185 194.9645 100.968185C197.44977 100.968185 199.4645 102.98291 199.4645 105.468185Z" fill-rule="nonzero"/><path fill="#4285f4" clip-path="url(#id_0)" d="M226.5835 105.121666C226.5835 107.60695 224.56877 109.621666 222.0835 109.621666C219.59822 109.621666 217.5835 107.60695 217.5835 105.121666C217.5835 102.63639 219.59822 100.621666 222.0835 100.621666C224.56877 100.621666 226.5835 102.63639 226.5835 105.121666Z" fill-rule="nonzero"/><path fill="#4285f4" clip-path="url(#id_0)" d="M253.7025 106.33449C253.7025 108.81977 251.68777 110.83449 249.2025 110.83449C246.71721 110.83449 244.7025 108.81977 244.7025 106.33449C244.7025 103.849205 246.71721 101.83449 249.2025 101.83449C251.68777 101.83449 253.7025 103.849205 253.7025 106.33449Z" fill-rule="nonzero"/><path fill="#4285f4" clip-path="url(#id_0)" d="M280.8215 109.97295C280.8215 112.45823 278.8068 114.47295 276.3215 114.47295C273.8362 114.47295 271.8215 112.45823 271.8215 109.97295C271.8215 107.48767 273.8362 105.47295 276.3215 105.47295C278.8068 105.47295 280.8215 107.48767 280.8215 109.97295Z" fill-rule="nonzero"/><path fill="#4285f4" clip-path="url(#id_0)" d="M307.9405 110.14621C307.9405 112.63149 305.92578 114.64621 303.4405 114.64621C300.95523 114.64621 298.9405 112.63149 298.9405 110.14621C298.9405 107.66093 300.95523 105.64621 303.4405 105.64621C305.92578 105.64621 307.9405 107.66093 307.9405 110.14621Z" fill-rule="nonzero"/><path fill="#4285f4" clip-path="url(#id_0)" d="M335.0595 109.10665C335.0595 111.591934 333.04477 113.60665 330.5595 113.60665C328.07422 113.60665 326.0595 111.591934 326.0595 109.10665C326.0595 106.62137 328.07422 104.60665 330.5595 104.60665C333.04477 104.60665 335.0595 106.62137 335.0595 109.10665Z" fill-rule="nonzero"/><path fill="#4285f4" clip-path="url(#id_0)" d="M362.1785 109.45317C362.1785 111.93845 360.1638 113.95317 357.6785 113.95317C355.1932 113.95317 353.1785 111.93845 353.1785 109.45317C353.1785 106.96789 355.1932 104.95317 357.6785 104.95317C360.1638 104.95317 362.1785 106.96789 362.1785 109.45317Z" fill-rule="nonzero"/><path fill="#4285f4" clip-path="url(#id_0)" d="M389.29752 108.06709C389.29752 110.55237 387.28278 112.56709 384.79752 112.56709C382.31223 112.56709 380.29752 110.55237 380.29752 108.06709C380.29752 105.58181 382.31223 103.56709 384.79752 103.56709C387.28278 103.56709 389.29752 105.58181 389.29752 108.06709Z" fill-rule="nonzero"/><path fill="#4285f4" clip-path="url(#id_0)" d="M416.4165 106.68101C416.4165 109.16629 414.4018 111.18101 411.9165 111.18101C409.4312 111.18101 407.4165 109.16629 407.4165 106.68101C407.4165 104.195724 409.4312 102.18101 411.9165 102.18101C414.4018 102.18101 416.4165 104.195724 416.4165 106.68101Z" fill-rule="nonzero"/><path fill="#4285f4" clip-path="url(#id_0)" d="M443.5355 107.37405C443.5355 109.85933 441.52078 111.87405 439.0355 111.87405C436.55023 111.87405 434.5355 109.85933 434.5355 107.37405C434.5355 104.88877 436.55023 102.87405 439.0355 102.87405C441.52078 102.87405 443.5355 104.88877 443.5355 107.37405Z" fill-rule="nonzero"/><path fill="#4285f4" clip-path="url(#id_0)" d="M470.6545 105.121666C470.6545 107.60695 468.6398 109.621666 466.1545 109.621666C463.66922 109.621666 461.6545 107.60695 461.6545 105.121666C461.6545 102.63639 463.66922 100.621666 466.1545 100.621666C468.6398 100.621666 470.6545 102.63639 470.6545 105.121666Z" fill-rule="nonzero"/><path fill="#4285f4" clip-path="url(#id_0)" d="M497.7735 101.82973C497.7735 104.31501 495.7588 106.32973 493.2735 106.32973C490.78824 106.32973 488.7735 104.31501 488.7735 101.82973C488.7735 99.344444 490.78824 97.32973 493.2735 97.32973C495.7588 97.32973 497.7735 99.344444 497.7735 101.82973Z" fill-rule="nonzero"/><path fill="#4285f4" clip-path="url(#id_0)" d="M524.8925 103.562325C524.8925 106.04761 522.8778 108.062325 520.3925 108.062325C517.9072 108.062325 515.8925 106.04761 515.8925 103.562325C515.8925 101.07705 517.9072 99.062325 520.3925 99.062325C522.8778 99.062325 524.8925 101.07705 524.8925 103.562325Z" fill-rule="nonzero"/><path fill="#4285f4" clip-path="url(#id_0)" d="M552.01154 105.98797C552.01154 108.47325 549.99677 110.48797 547.51154 110.48797C545.02625 110.48797 543.01154 108.47325 543.01154 105.98797C543.01154 103.502686 545.02625 101.48797 547.51154 101.48797C549.99677 101.48797 552.01154 103.502686 552.01154 105.98797Z" fill-rule="nonzero"/><path fill="#ea4335" clip-path="url(#id_0)" d="M90.98849 99.92387C90.98849 102.40915 88.97377 104.42387 86.48849 104.42387C84.003204 104.42387 81.98849 102.40915 81.98849 99.92387C81.98849 97.43858 84.003204 95.42387 86.48849 95.42387C88.97377 95.42387 90.98849 97.43858 90.98849 99.92387Z" fill-rule="nonzero"/><path fill="#ea4335" clip-path="url(#id_0)" d="M118.10749 111.01251C118.10749 113.497795 116.09277 115.51251 113.60749 115.51251C111.12221 115.51251 109.10749 113.497795 109.10749 111.01251C109.10749 108.52723 111.12221 106.51251 113.60749 106.51251C116.09277 106.51251 118.10749 108.52723 118.10749 111.01251Z" fill-rule="nonzero"/><path fill="#ea4335" clip-path="url(#id_0)" d="M145.22649 123.487236C145.22649 125.97252 143.21178 127.987236 140.72649 127.987236C138.24121 127.987236 136.22649 125.97252 136.22649 123.487236C136.22649 121.00195 138.24121 118.987236 140.72649 118.987236C143.21178 118.987236 145.22649 121.00195 145.22649 123.487236Z" fill-rule="nonzero"/><path fill="#ea4335" clip-path="url(#id_0)" d="M172.34549 137.00153C172.34549 139.4868 170.33078 141.50153 167.84549 141.50153C165.36021 141.50153 163.34549 139.4868 163.34549 137.00153C163.34549 134.51625 165.36021 132.50153 167.84549 132.50153C170.33078 132.50153 172.34549 134.51625 172.34549 137.00153Z" fill-rule="nonzero"/><path fill="#ea4335" clip-path="url(#id_0)" d="M199.4645 149.99603C199.4645 152.48131 197.44977 154.49603 194.9645 154.49603C192.47922 154.49603 190.4645 152.48131 190.4645 149.99603C190.4645 147.51074 192.47922 145.49603 194.9645 145.49603C197.44977 145.49603 199.4645 147.51074 199.4645 149.99603Z" fill-rule="nonzero"/><path fill="#ea4335" clip-path="url(#id_0)" d="M226.5835 162.99054C226.5835 165.47581 224.56877 167.49054 222.0835 167.49054C219.59822 167.49054 217.5835 165.47581 217.5835 162.99054C217.5835 160.50525 219.59822 158.49054 222.0835 158.49054C224.56877 158.49054 226.5835 160.50525 226.5835 162.99054Z" fill-rule="nonzero"/><path fill="#ea4335" clip-path="url(#id_0)" d="M253.7025 175.292C253.7025 177.77728 251.68777 179.792 249.2025 179.792C246.71721 179.792 244.7025 177.77728 244.7025 175.292C244.7025 172.80672 246.71721 170.792 249.2025 170.792C251.68777 170.792 253.7025 172.80672 253.7025 175.292Z" fill-rule="nonzero"/><path fill="#ea4335" clip-path="url(#id_0)" d="M280.8215 186.38065C280.8215 188.86594 278.8068 190.88065 276.3215 190.88065C273.8362 190.88065 271.8215 188.86594 271.8215 186.38065C271.8215 183.89537 273.8362 181.88065 276.3215 181.88065C278.8068 181.88065 280.8215 183.89537 280.8215 186.38065Z" fill-rule="nonzero"/><path fill="#ea4335" clip-path="url(#id_0)" d="M307.9405 196.603C307.9405 199.08827 305.92578 201.103 303.4405 201.103C300.95523 201.103 298.9405 199.08827 298.9405 196.603C298.9405 194.1177 300.95523 192.103 303.4405 192.103C305.92578 192.103 307.9405 194.1177 307.9405 196.603Z" fill-rule="nonzero"/><path fill="#ea4335" clip-path="url(#id_0)" d="M335.0595 205.26599C335.0595 207.75128 333.04477 209.76599 330.5595 209.76599C328.07422 209.76599 326.0595 207.75128 326.0595 205.26599C326.0595 202.78072 328.07422 200.76599 330.5595 200.76599C333.04477 200.76599 335.0595 202.78072 335.0595 205.26599Z" fill-rule="nonzero"/><path fill="#ea4335" clip-path="url(#id_0)" d="M362.1785 216.00812C362.1785 218.49341 360.1638 220.50812 357.6785 220.50812C355.1932 220.50812 353.1785 218.49341 353.1785 216.00812C353.1785 213.52284 355.1932 211.50812 357.6785 211.50812C360.1638 211.50812 362.1785 213.52284 362.1785 216.00812Z" fill-rule="nonzero"/><path fill="#ea4335" clip-path="url(#id_0)" d="M389.29752 228.65611C389.29752 231.14139 387.28278 233.15611 384.79752 233.15611C382.31223 233.15611 380.29752 231.14139 380.29752 228.65611C380.29752 226.17082 382.31223 224.15611 384.79752 224.15611C387.28278 224.15611 389.29752 226.17082 389.29752 228.65611Z" fill-rule="nonzero"/><path fill="#ea4335" clip-path="url(#id_0)" d="M416.4165 237.49237C416.4165 239.97766 414.4018 241.99237 411.9165 241.99237C409.4312 241.99237 407.4165 239.97766 407.4165 237.49237C407.4165 235.0071 409.4312 232.99237 411.9165 232.99237C414.4018 232.99237 416.4165 235.0071 416.4165 237.49237Z" fill-rule="nonzero"/><path fill="#ea4335" clip-path="url(#id_0)" d="M443.5355 252.04622C443.5355 254.53151 441.52078 256.54623 439.0355 256.54623C436.55023 256.54623 434.5355 254.53151 434.5355 252.04622C434.5355 249.56094 436.55023 247.54622 439.0355 247.54622C441.52078 247.54622 443.5355 249.56094 443.5355 252.04622Z" fill-rule="nonzero"/><path fill="#ea4335" clip-path="url(#id_0)" d="M470.6545 266.9466C470.6545 269.4319 468.6398 271.4466 466.1545 271.4466C463.66922 271.4466 461.6545 269.4319 461.6545 266.9466C461.6545 264.4613 463.66922 262.4466 466.1545 262.4466C468.6398 262.4466 470.6545 264.4613 470.6545 266.9466Z" fill-rule="nonzero"/><path fill="#ea4335" clip-path="url(#id_0)" d="M497.7735 277.68872C497.7735 280.174 495.7588 282.18872 493.2735 282.18872C490.78824 282.18872 488.7735 280.174 488.7735 277.68872C488.7735 275.20343 490.78824 273.18872 493.2735 273.18872C495.7588 273.18872 497.7735 275.20343 497.7735 277.68872Z" fill-rule="nonzero"/><path fill="#ea4335" clip-path="url(#id_0)" d="M524.8925 288.77737C524.8925 291.26263 522.8778 293.27737 520.3925 293.27737C517.9072 293.27737 515.8925 291.26263 515.8925 288.77737C515.8925 286.29208 517.9072 284.27737 520.3925 284.27737C522.8778 284.27737 524.8925 286.29208 524.8925 288.77737Z" fill-rule="nonzero"/><path fill="#ea4335" clip-path="url(#id_0)" d="M552.01154 294.84146C552.01154 297.32675 549.99677 299.34146 547.51154 299.34146C545.02625 299.34146 543.01154 297.32675 543.01154 294.84146C543.01154 292.35617 545.02625 290.34146 547.51154 290.34146C549.99677 290.34146 552.01154 292.35617 552.01154 294.84146Z" fill-rule="nonzero"/><path fill="#000000" d="M318.59375 348.5125L318.75 349.4344Q318.29688 349.52814 317.95312 349.52814Q317.375 349.52814 317.0625 349.35626Q316.75 349.16876 316.60938 348.8719Q316.48438 348.575 316.48438 347.6219L316.48438 344.04376L315.71875 344.04376L315.71875 343.23126L316.48438 343.23126L316.48438 341.6844L317.53125 341.0594L317.53125 343.23126L318.59375 343.23126L318.59375 344.04376L317.53125 344.04376L317.53125 347.6844Q317.53125 348.1375 317.57812 348.2625Q317.64062 348.3875 317.76562 348.46564Q317.89062 348.54376 318.125 348.54376Q318.3125 348.54376 318.59375 348.5125Z" fill-rule="nonzero"/><path fill="#000000" d="M18.925 301.8719L18.925 300.8094L22.175 300.8094L22.175 301.8719L18.925 301.8719ZM26.425 304.45L26.425 302.3875L22.70625 302.3875L22.70625 301.41876L26.628124 295.85626L27.4875 295.85626L27.4875 301.41876L28.64375 301.41876L28.64375 302.3875L27.4875 302.3875L27.4875 304.45L26.425 304.45ZM26.425 301.41876L26.425 297.5594L23.7375 301.41876L26.425 301.41876ZM30.64375 304.45L30.64375 303.2469L31.846874 303.2469L31.846874 304.45L30.64375 304.45ZM33.05 300.21564Q33.05 298.6844 33.3625 297.7625Q33.675 296.825 34.284374 296.325Q34.909374 295.825 35.846874 295.825Q36.534374 295.825 37.05 296.10626Q37.58125 296.3875 37.925 296.91876Q38.26875 297.4344 38.45625 298.1844Q38.64375 298.9344 38.64375 300.21564Q38.64375 301.73126 38.33125 302.65314Q38.034374 303.575 37.409374 304.09064Q36.8 304.59064 35.846874 304.59064Q34.6125 304.59064 33.89375 303.7Q33.05 302.6375 33.05 300.21564ZM34.128124 300.21564Q34.128124 302.325 34.628124 303.02814Q35.128124 303.73126 35.846874 303.73126Q36.58125 303.73126 37.065624 303.02814Q37.565624 302.325 37.565624 300.21564Q37.565624 298.09064 37.065624 297.40314Q36.58125 296.7 35.83125 296.7Q35.1125 296.7 34.675 297.3094Q34.128124 298.09064 34.128124 300.21564ZM40.05 300.21564Q40.05 298.6844 40.3625 297.7625Q40.675 296.825 41.284374 296.325Q41.909374 295.825 42.846874 295.825Q43.534374 295.825 44.05 296.10626Q44.58125 296.3875 44.925 296.91876Q45.26875 297.4344 45.45625 298.1844Q45.64375 298.9344 45.64375 300.21564Q45.64375 301.73126 45.33125 302.65314Q45.034374 303.575 44.409374 304.09064Q43.8 304.59064 42.846874 304.59064Q41.6125 304.59064 40.89375 303.7Q40.05 302.6375 40.05 300.21564ZM41.128124 300.21564Q41.128124 302.325 41.628124 303.02814Q42.128124 303.73126 42.846874 303.73126Q43.58125 303.73126 44.065624 303.02814Q44.565624 302.325 44.565624 300.21564Q44.565624 298.09064 44.065624 297.40314Q43.58125 296.7 42.83125 296.7Q42.1125 296.7 41.675 297.3094Q41.128124 298.09064 41.128124 300.21564Z" fill-rule="nonzero"/><path fill="#000000" d="M18.925 231.14966L18.925 230.08716L22.175 230.08716L22.175 231.14966L18.925 231.14966ZM28.596874 232.71216L28.596874 233.72778L22.909374 233.72778Q22.909374 233.35278 23.034374 232.99341Q23.253124 232.41528 23.721874 231.85278Q24.20625 231.29028 25.1125 230.55591Q26.51875 229.39966 27.003124 228.72778Q27.503124 228.05591 27.503124 227.46216Q27.503124 226.83716 27.05 226.41528Q26.596874 225.97778 25.878124 225.97778Q25.1125 225.97778 24.659374 226.43091Q24.20625 226.88403 24.190624 227.69653L23.1125 227.58716Q23.221874 226.36841 23.940624 225.74341Q24.675 225.10278 25.909374 225.10278Q27.14375 225.10278 27.8625 225.79028Q28.58125 226.47778 28.58125 227.49341Q28.58125 228.00903 28.3625 228.50903Q28.159374 228.99341 27.659374 229.55591Q27.175 230.10278 26.05 231.05591Q25.096874 231.85278 24.815624 232.14966Q24.55 232.43091 24.378124 232.71216L28.596874 232.71216ZM30.64375 233.72778L30.64375 232.52466L31.846874 232.52466L31.846874 233.72778L30.64375 233.72778ZM33.05 229.49341Q33.05 227.96216 33.3625 227.04028Q33.675 226.10278 34.284374 225.60278Q34.909374 225.10278 35.846874 225.10278Q36.534374 225.10278 37.05 225.38403Q37.58125 225.66528 37.925 226.19653Q38.26875 226.71216 38.45625 227.46216Q38.64375 228.21216 38.64375 229.49341Q38.64375 231.00903 38.33125 231.93091Q38.034374 232.85278 37.409374 233.36841Q36.8 233.86841 35.846874 233.86841Q34.6125 233.86841 33.89375 232.97778Q33.05 231.91528 33.05 229.49341ZM34.128124 229.49341Q34.128124 231.60278 34.628124 232.30591Q35.128124 233.00903 35.846874 233.00903Q36.58125 233.00903 37.065624 232.30591Q37.565624 231.60278 37.565624 229.49341Q37.565624 227.36841 37.065624 226.68091Q36.58125 225.97778 35.83125 225.97778Q35.1125 225.97778 34.675 226.58716Q34.128124 227.36841 34.128124 229.49341ZM40.05 229.49341Q40.05 227.96216 40.3625 227.04028Q40.675 226.10278 41.284374 225.60278Q41.909374 225.10278 42.846874 225.10278Q43.534374 225.10278 44.05 225.38403Q44.58125 225.66528 44.925 226.19653Q45.26875 226.71216 45.45625 227.46216Q45.64375 228.21216 45.64375 229.49341Q45.64375 231.00903 45.33125 231.93091Q45.034374 232.85278 44.409374 233.36841Q43.8 233.86841 42.846874 233.86841Q41.6125 233.86841 40.89375 232.97778Q40.05 231.91528 40.05 229.49341ZM41.128124 229.49341Q41.128124 231.60278 41.628124 232.30591Q42.128124 233.00903 42.846874 233.00903Q43.58125 233.00903 44.065624 232.30591Q44.565624 231.60278 44.565624 229.49341Q44.565624 227.36841 44.065624 226.68091Q43.58125 225.97778 42.83125 225.97778Q42.1125 225.97778 41.675 226.58716Q41.128124 227.36841 41.128124 229.49341Z" fill-rule="nonzero"/><path fill="#000000" d="M23.05 158.77118Q23.05 157.23993 23.3625 156.31805Q23.675 155.38055 24.284374 154.88055Q24.909374 154.38055 25.846874 154.38055Q26.534374 154.38055 27.05 154.6618Q27.58125 154.94305 27.925 155.4743Q28.26875 155.98993 28.45625 156.73993Q28.64375 157.48993 28.64375 158.77118Q28.64375 160.2868 28.33125 161.20868Q28.034374 162.13055 27.409374 162.64618Q26.8 163.14618 25.846874 163.14618Q24.6125 163.14618 23.89375 162.25555Q23.05 161.19305 23.05 158.77118ZM24.128124 158.77118Q24.128124 160.88055 24.628124 161.58368Q25.128124 162.2868 25.846874 162.2868Q26.58125 162.2868 27.065624 161.58368Q27.565624 160.88055 27.565624 158.77118Q27.565624 156.64618 27.065624 155.95868Q26.58125 155.25555 25.83125 155.25555Q25.1125 155.25555 24.675 155.86493Q24.128124 156.64618 24.128124 158.77118ZM30.64375 163.00555L30.64375 161.80243L31.846874 161.80243L31.846874 163.00555L30.64375 163.00555ZM33.05 158.77118Q33.05 157.23993 33.3625 156.31805Q33.675 155.38055 34.284374 154.88055Q34.909374 154.38055 35.846874 154.38055Q36.534374 154.38055 37.05 154.6618Q37.58125 154.94305 37.925 155.4743Q38.26875 155.98993 38.45625 156.73993Q38.64375 157.48993 38.64375 158.77118Q38.64375 160.2868 38.33125 161.20868Q38.034374 162.13055 37.409374 162.64618Q36.8 163.14618 35.846874 163.14618Q34.6125 163.14618 33.89375 162.25555Q33.05 161.19305 33.05 158.77118ZM34.128124 158.77118Q34.128124 160.88055 34.628124 161.58368Q35.128124 162.2868 35.846874 162.2868Q36.58125 162.2868 37.065624 161.58368Q37.565624 160.88055 37.565624 158.77118Q37.565624 156.64618 37.065624 155.95868Q36.58125 155.25555 35.83125 155.25555Q35.1125 155.25555 34.675 155.86493Q34.128124 156.64618 34.128124 158.77118ZM40.05 158.77118Q40.05 157.23993 40.3625 156.31805Q40.675 155.38055 41.284374 154.88055Q41.909374 154.38055 42.846874 154.38055Q43.534374 154.38055 44.05 154.6618Q44.58125 154.94305 44.925 155.4743Q45.26875 155.98993 45.45625 156.73993Q45.64375 157.48993 45.64375 158.77118Q45.64375 160.2868 45.33125 161.20868Q45.034374 162.13055 44.409374 162.64618Q43.8 163.14618 42.846874 163.14618Q41.6125 163.14618 40.89375 162.25555Q40.05 161.19305 40.05 158.77118ZM41.128124 158.77118Q41.128124 160.88055 41.628124 161.58368Q42.128124 162.2868 42.846874 162.2868Q43.58125 162.2868 44.065624 161.58368Q44.565624 160.88055 44.565624 158.77118Q44.565624 156.64618 44.065624 155.95868Q43.58125 155.25555 42.83125 155.25555Q42.1125 155.25555 41.675 155.86493Q41.128124 156.64618 41.128124 158.77118Z" fill-rule="nonzero"/><path fill="#000000" d="M28.596874 91.26771L28.596874 92.28333L22.909374 92.28333Q22.909374 91.90833 23.034374 91.54896Q23.253124 90.97083 23.721874 90.40833Q24.20625 89.84583 25.1125 89.11146Q26.51875 87.95521 27.003124 87.28333Q27.503124 86.61146 27.503124 86.01771Q27.503124 85.39271 27.05 84.97083Q26.596874 84.53333 25.878124 84.53333Q25.1125 84.53333 24.659374 84.98646Q24.20625 85.43958 24.190624 86.25208L23.1125 86.14271Q23.221874 84.92396 23.940624 84.29896Q24.675 83.65833 25.909374 83.65833Q27.14375 83.65833 27.8625 84.34583Q28.58125 85.03333 28.58125 86.04896Q28.58125 86.56458 28.3625 87.06458Q28.159374 87.54896 27.659374 88.11146Q27.175 88.65833 26.05 89.61146Q25.096874 90.40833 24.815624 90.70521Q24.55 90.98646 24.378124 91.26771L28.596874 91.26771ZM30.64375 92.28333L30.64375 91.08021L31.846874 91.08021L31.846874 92.28333L30.64375 92.28333ZM33.05 88.04896Q33.05 86.51771 33.3625 85.59583Q33.675 84.65833 34.284374 84.15833Q34.909374 83.65833 35.846874 83.65833Q36.534374 83.65833 37.05 83.93958Q37.58125 84.22083 37.925 84.75208Q38.26875 85.26771 38.45625 86.01771Q38.64375 86.76771 38.64375 88.04896Q38.64375 89.56458 38.33125 90.48646Q38.034374 91.40833 37.409374 91.92396Q36.8 92.42396 35.846874 92.42396Q34.6125 92.42396 33.89375 91.53333Q33.05 90.47083 33.05 88.04896ZM34.128124 88.04896Q34.128124 90.15833 34.628124 90.86146Q35.128124 91.56458 35.846874 91.56458Q36.58125 91.56458 37.065624 90.86146Q37.565624 90.15833 37.565624 88.04896Q37.565624 85.92396 37.065624 85.23646Q36.58125 84.53333 35.83125 84.53333Q35.1125 84.53333 34.675 85.14271Q34.128124 85.92396 34.128124 88.04896ZM40.05 88.04896Q40.05 86.51771 40.3625 85.59583Q40.675 84.65833 41.284374 84.15833Q41.909374 83.65833 42.846874 83.65833Q43.534374 83.65833 44.05 83.93958Q44.58125 84.22083 44.925 84.75208Q45.26875 85.26771 45.45625 86.01771Q45.64375 86.76771 45.64375 88.04896Q45.64375 89.56458 45.33125 90.48646Q45.034374 91.40833 44.409374 91.92396Q43.8 92.42396 42.846874 92.42396Q41.6125 92.42396 40.89375 91.53333Q40.05 90.47083 40.05 88.04896ZM41.128124 88.04896Q41.128124 90.15833 41.628124 90.86146Q42.128124 91.56458 42.846874 91.56458Q43.58125 91.56458 44.065624 90.86146Q44.565624 90.15833 44.565624 88.04896Q44.565624 85.92396 44.065624 85.23646Q43.58125 84.53333 42.83125 84.53333Q42.1125 84.53333 41.675 85.14271Q41.128124 85.92396 41.128124 88.04896Z" fill-rule="nonzero"/><path fill="#000000" d="M47.869488 313.21564Q47.869488 311.6844 48.181988 310.7625Q48.494488 309.825 49.103863 309.325Q49.728863 308.825 50.666363 308.825Q51.353863 308.825 51.869488 309.10626Q52.400738 309.3875 52.744488 309.91876Q53.088238 310.4344 53.275738 311.1844Q53.463238 311.9344 53.463238 313.21564Q53.463238 314.73126 53.150738 315.65314Q52.853863 316.575 52.228863 317.09064Q51.619488 317.59064 50.666363 317.59064Q49.431988 317.59064 48.713238 316.7Q47.869488 315.6375 47.869488 313.21564ZM48.947613 313.21564Q48.947613 315.325 49.447613 316.02814Q49.947613 316.73126 50.666363 316.73126Q51.400738 316.73126 51.885113 316.02814Q52.385113 315.325 52.385113 313.21564Q52.385113 311.09064 51.885113 310.40314Q51.400738 309.7 50.650738 309.7Q49.931988 309.7 49.494488 310.3094Q48.947613 311.09064 48.947613 313.21564ZM55.463238 317.45L55.463238 316.2469L56.666363 316.2469L56.666363 317.45L55.463238 317.45ZM57.869488 313.21564Q57.869488 311.6844 58.181988 310.7625Q58.494488 309.825 59.103863 309.325Q59.728863 308.825 60.666363 308.825Q61.353863 308.825 61.869488 309.10626Q62.400738 309.3875 62.744488 309.91876Q63.088238 310.4344 63.275738 311.1844Q63.463238 311.9344 63.463238 313.21564Q63.463238 314.73126 63.150738 315.65314Q62.853863 316.575 62.228863 317.09064Q61.619488 317.59064 60.666363 317.59064Q59.431988 317.59064 58.713238 316.7Q57.869488 315.6375 57.869488 313.21564ZM58.947613 313.21564Q58.947613 315.325 59.447613 316.02814Q59.947613 316.73126 60.666363 316.73126Q61.400738 316.73126 61.885113 316.02814Q62.385113 315.325 62.385113 313.21564Q62.385113 311.09064 61.885113 310.40314Q61.400738 309.7 60.650738 309.7Q59.931988 309.7 59.494488 310.3094Q58.947613 311.09064 58.947613 313.21564ZM64.86949 313.21564Q64.86949 311.6844 65.18199 310.7625Q65.49449 309.825 66.10387 309.325Q66.72887 308.825 67.66637 308.825Q68.35387 308.825 68.86949 309.10626Q69.40074 309.3875 69.74449 309.91876Q70.08824 310.4344 70.27574 311.1844Q70.46324 311.9344 70.46324 313.21564Q70.46324 314.73126 70.15074 315.65314Q69.85387 316.575 69.22887 317.09064Q68.61949 317.59064 67.66637 317.59064Q66.43199 317.59064 65.71324 316.7Q64.86949 315.6375 64.86949 313.21564ZM65.94762 313.21564Q65.94762 315.325 66.44762 316.02814Q66.94762 316.73126 67.66637 316.73126Q68.40074 316.73126 68.88512 316.02814Q69.38512 315.325 69.38512 313.21564Q69.38512 311.09064 68.88512 310.40314Q68.40074 309.7 67.65074 309.7Q66.93199 309.7 66.49449 310.3094Q65.94762 311.09064 65.94762 313.21564Z" fill-rule="nonzero"/><path fill="#000000" d="M210.44247 313.21564Q210.44247 311.6844 210.75497 310.7625Q211.06747 309.825 211.67685 309.325Q212.30185 308.825 213.23935 308.825Q213.92685 308.825 214.44247 309.10626Q214.97372 309.3875 215.31747 309.91876Q215.66122 310.4344 215.84872 311.1844Q216.03622 311.9344 216.03622 313.21564Q216.03622 314.73126 215.72372 315.65314Q215.42685 316.575 214.80185 317.09064Q214.19247 317.59064 213.23935 317.59064Q212.00497 317.59064 211.28622 316.7Q210.44247 315.6375 210.44247 313.21564ZM211.5206 313.21564Q211.5206 315.325 212.0206 316.02814Q212.5206 316.73126 213.23935 316.73126Q213.97372 316.73126 214.4581 316.02814Q214.9581 315.325 214.9581 313.21564Q214.9581 311.09064 214.4581 310.40314Q213.97372 309.7 213.22372 309.7Q212.50497 309.7 212.06747 310.3094Q211.5206 311.09064 211.5206 313.21564ZM218.03622 317.45L218.03622 316.2469L219.23935 316.2469L219.23935 317.45L218.03622 317.45ZM225.98935 316.4344L225.98935 317.45L220.30185 317.45Q220.30185 317.075 220.42685 316.71564Q220.6456 316.1375 221.11435 315.575Q221.59872 315.0125 222.50497 314.27814Q223.91122 313.1219 224.3956 312.45Q224.8956 311.77814 224.8956 311.1844Q224.8956 310.5594 224.44247 310.1375Q223.98935 309.7 223.2706 309.7Q222.50497 309.7 222.05185 310.15314Q221.59872 310.60626 221.5831 311.41876L220.50497 311.3094Q220.61435 310.09064 221.3331 309.46564Q222.06747 308.825 223.30185 308.825Q224.53622 308.825 225.25497 309.5125Q225.97372 310.2 225.97372 311.21564Q225.97372 311.73126 225.75497 312.23126Q225.55185 312.71564 225.05185 313.27814Q224.56747 313.825 223.44247 314.77814Q222.48935 315.575 222.2081 315.8719Q221.94247 316.15314 221.7706 316.4344L225.98935 316.4344ZM227.44247 313.21564Q227.44247 311.6844 227.75497 310.7625Q228.06747 309.825 228.67685 309.325Q229.30185 308.825 230.23935 308.825Q230.92685 308.825 231.44247 309.10626Q231.97372 309.3875 232.31747 309.91876Q232.66122 310.4344 232.84872 311.1844Q233.03622 311.9344 233.03622 313.21564Q233.03622 314.73126 232.72372 315.65314Q232.42685 316.575 231.80185 317.09064Q231.19247 317.59064 230.23935 317.59064Q229.00497 317.59064 228.28622 316.7Q227.44247 315.6375 227.44247 313.21564ZM228.5206 313.21564Q228.5206 315.325 229.0206 316.02814Q229.5206 316.73126 230.23935 316.73126Q230.97372 316.73126 231.4581 316.02814Q231.9581 315.325 231.9581 313.21564Q231.9581 311.09064 231.4581 310.40314Q230.97372 309.7 230.22372 309.7Q229.50497 309.7 229.06747 310.3094Q228.5206 311.09064 228.5206 313.21564Z" fill-rule="nonzero"/><path fill="#000000" d="M373.01544 313.21564Q373.01544 311.6844 373.32794 310.7625Q373.64044 309.825 374.24982 309.325Q374.87482 308.825 375.81232 308.825Q376.49982 308.825 377.01544 309.10626Q377.5467 309.3875 377.89044 309.91876Q378.2342 310.4344 378.4217 311.1844Q378.6092 311.9344 378.6092 313.21564Q378.6092 314.73126 378.2967 315.65314Q377.99982 316.575 377.37482 317.09064Q376.76544 317.59064 375.81232 317.59064Q374.57794 317.59064 373.8592 316.7Q373.01544 315.6375 373.01544 313.21564ZM374.09357 313.21564Q374.09357 315.325 374.59357 316.02814Q375.09357 316.73126 375.81232 316.73126Q376.5467 316.73126 377.03107 316.02814Q377.53107 315.325 377.53107 313.21564Q377.53107 311.09064 377.03107 310.40314Q376.5467 309.7 375.7967 309.7Q375.07794 309.7 374.64044 310.3094Q374.09357 311.09064 374.09357 313.21564ZM380.6092 317.45L380.6092 316.2469L381.81232 316.2469L381.81232 317.45L380.6092 317.45ZM386.39044 317.45L386.39044 315.3875L382.6717 315.3875L382.6717 314.41876L386.59357 308.85626L387.45294 308.85626L387.45294 314.41876L388.6092 314.41876L388.6092 315.3875L387.45294 315.3875L387.45294 317.45L386.39044 317.45ZM386.39044 314.41876L386.39044 310.5594L383.70294 314.41876L386.39044 314.41876ZM390.01544 313.21564Q390.01544 311.6844 390.32794 310.7625Q390.64044 309.825 391.24982 309.325Q391.87482 308.825 392.81232 308.825Q393.49982 308.825 394.01544 309.10626Q394.5467 309.3875 394.89044 309.91876Q395.2342 310.4344 395.4217 311.1844Q395.6092 311.9344 395.6092 313.21564Q395.6092 314.73126 395.2967 315.65314Q394.99982 316.575 394.37482 317.09064Q393.76544 317.59064 392.81232 317.59064Q391.57794 317.59064 390.8592 316.7Q390.01544 315.6375 390.01544 313.21564ZM391.09357 313.21564Q391.09357 315.325 391.59357 316.02814Q392.09357 316.73126 392.81232 316.73126Q393.5467 316.73126 394.03107 316.02814Q394.53107 315.325 394.53107 313.21564Q394.53107 311.09064 394.03107 310.40314Q393.5467 309.7 392.7967 309.7Q392.07794 309.7 391.64044 310.3094Q391.09357 311.09064 391.09357 313.21564Z" fill-rule="nonzero"/><path fill="#000000" d="M535.58844 313.21564Q535.58844 311.6844 535.90094 310.7625Q536.21344 309.825 536.8228 309.325Q537.4478 308.825 538.3853 308.825Q539.0728 308.825 539.58844 309.10626Q540.1197 309.3875 540.46344 309.91876Q540.8072 310.4344 540.9947 311.1844Q541.1822 311.9344 541.1822 313.21564Q541.1822 314.73126 540.8697 315.65314Q540.5728 316.575 539.9478 317.09064Q539.33844 317.59064 538.3853 317.59064Q537.15094 317.59064 536.4322 316.7Q535.58844 315.6375 535.58844 313.21564ZM536.66656 313.21564Q536.66656 315.325 537.16656 316.02814Q537.66656 316.73126 538.3853 316.73126Q539.1197 316.73126 539.60406 316.02814Q540.10406 315.325 540.10406 313.21564Q540.10406 311.09064 539.60406 310.40314Q539.1197 309.7 538.3697 309.7Q537.65094 309.7 537.21344 310.3094Q536.66656 311.09064 536.66656 313.21564ZM543.1822 317.45L543.1822 316.2469L544.3853 316.2469L544.3853 317.45L543.1822 317.45ZM551.0572 310.96564L550.0103 311.04376Q549.8697 310.41876 549.6197 310.1375Q549.1822 309.6844 548.5572 309.6844Q548.0572 309.6844 547.66656 309.96564Q547.1822 310.34064 546.8853 311.04376Q546.60406 311.73126 546.58844 313.0125Q546.96344 312.4344 547.5103 312.15314Q548.0728 311.8719 548.6822 311.8719Q549.72906 311.8719 550.46344 312.65314Q551.21344 313.4344 551.21344 314.65314Q551.21344 315.46564 550.85406 316.16876Q550.5103 316.85626 549.90094 317.23126Q549.29156 317.59064 548.52594 317.59064Q547.1978 317.59064 546.3697 316.6219Q545.54156 315.65314 545.54156 313.4344Q545.54156 310.9344 546.46344 309.8094Q547.2603 308.825 548.6197 308.825Q549.6353 308.825 550.27594 309.40314Q550.9322 309.96564 551.0572 310.96564ZM546.7603 314.66876Q546.7603 315.21564 546.97906 315.71564Q547.21344 316.2 547.6197 316.46564Q548.04156 316.73126 548.5103 316.73126Q549.16656 316.73126 549.65094 316.2Q550.1353 315.65314 550.1353 314.73126Q550.1353 313.84064 549.65094 313.325Q549.1822 312.8094 548.46344 312.8094Q547.7447 312.8094 547.2447 313.325Q546.7603 313.84064 546.7603 314.66876ZM552.58844 313.21564Q552.58844 311.6844 552.90094 310.7625Q553.21344 309.825 553.8228 309.325Q554.4478 308.825 555.3853 308.825Q556.0728 308.825 556.58844 309.10626Q557.1197 309.3875 557.46344 309.91876Q557.8072 310.4344 557.9947 311.1844Q558.1822 311.9344 558.1822 313.21564Q558.1822 314.73126 557.8697 315.65314Q557.5728 316.575 556.9478 317.09064Q556.33844 317.59064 555.3853 317.59064Q554.15094 317.59064 553.4322 316.7Q552.58844 315.6375 552.58844 313.21564ZM553.66656 313.21564Q553.66656 315.325 554.16656 316.02814Q554.66656 316.73126 555.3853 316.73126Q556.1197 316.73126 556.60406 316.02814Q557.10406 315.325 557.10406 313.21564Q557.10406 311.09064 556.60406 310.40314Q556.1197 309.7 555.3697 309.7Q554.65094 309.7 554.21344 310.3094Q553.66656 311.09064 553.66656 313.21564Z" fill-rule="nonzero"/><path fill="#4285f4" d="M151.0 61.916668C151.0 65.23038 148.3137 67.916664 145.0 67.916664C141.6863 67.916664 139.0 65.23038 139.0 61.916668C139.0 58.60296 141.6863 55.916668 145.0 55.916668C148.3137 55.916668 151.0 58.60296 151.0 61.916668Z" fill-rule="nonzero"/><path fill="#1a1a1a" d="M161.51562 65.916664L159.15625 59.697914L160.26562 59.697914L161.60938 63.416664Q161.8125 64.02604 162.0 64.666664Q162.14062 64.18229 162.39062 63.49479L163.78125 59.697914L164.85938 59.697914L162.5 65.916664L161.51562 65.916664ZM163.8125 68.30729L163.8125 67.541664L170.8125 67.541664L170.8125 68.30729L163.8125 68.30729ZM171.09375 65.916664L173.35938 62.68229L171.26562 59.697914L172.57812 59.697914L173.53125 61.15104Q173.79688 61.572914 173.96875 61.854164Q174.21875 61.46354 174.4375 61.166664L175.48438 59.697914L176.75 59.697914L174.59375 62.61979L176.90625 65.916664L175.625 65.916664L174.34375 63.979164L174.0 63.46354L172.35938 65.916664L171.09375 65.916664Z" fill-rule="nonzero"/><path stroke="#4285f4" stroke-width="4.0" stroke-linecap="butt" stroke-opacity="0.4" d="M192.0 61.916668L204.0 61.916668" fill-rule="nonzero"/><path fill="#1a1a1a" d="M212.5 61.68229Q212.5 60.15104 212.8125 59.229164Q213.125 58.291664 213.73438 57.791664Q214.35938 57.291664 215.29688 57.291664Q215.98438 57.291664 216.5 57.572914Q217.03125 57.854164 217.375 58.385414Q217.71875 58.90104 217.90625 59.65104Q218.09375 60.40104 218.09375 61.68229Q218.09375 63.197914 217.78125 64.11979Q217.48438 65.041664 216.85938 65.55729Q216.25 66.05729 215.29688 66.05729Q214.0625 66.05729 213.34375 65.166664Q212.5 64.104164 212.5 61.68229ZM213.57812 61.68229Q213.57812 63.791664 214.07812 64.49479Q214.57812 65.197914 215.29688 65.197914Q216.03125 65.197914 216.51562 64.49479Q217.01562 63.791664 217.01562 61.68229Q217.01562 59.55729 216.51562 58.86979Q216.03125 58.166664 215.28125 58.166664Q214.5625 58.166664 214.125 58.77604Q213.57812 59.55729 213.57812 61.68229ZM220.09375 65.916664L220.09375 64.71354L221.29688 64.71354L221.29688 65.916664L220.09375 65.916664ZM222.5 61.68229Q222.5 60.15104 222.8125 59.229164Q223.125 58.291664 223.73438 57.791664Q224.35938 57.291664 225.29688 57.291664Q225.98438 57.291664 226.5 57.572914Q227.03125 57.854164 227.375 58.385414Q227.71875 58.90104 227.90625 59.65104Q228.09375 60.40104 228.09375 61.68229Q228.09375 63.197914 227.78125 64.11979Q227.48438 65.041664 226.85938 65.55729Q226.25 66.05729 225.29688 66.05729Q224.0625 66.05729 223.34375 65.166664Q222.5 64.104164 222.5 61.68229ZM223.57812 61.68229Q223.57812 63.791664 224.07812 64.49479Q224.57812 65.197914 225.29688 65.197914Q226.03125 65.197914 226.51562 64.49479Q227.01562 63.791664 227.01562 61.68229Q227.01562 59.55729 226.51562 58.86979Q226.03125 58.166664 225.28125 58.166664Q224.5625 58.166664 224.125 58.77604Q223.57812 59.55729 223.57812 61.68229ZM233.46875 65.916664L232.42188 65.916664L232.42188 59.197914Q232.03125 59.55729 231.40625 59.93229Q230.79688 60.291664 230.3125 60.46354L230.3125 59.447914Q231.1875 59.02604 231.84375 58.447914Q232.51562 57.854164 232.79688 57.291664L233.46875 57.291664L233.46875 65.916664ZM236.5 63.666664L237.60938 63.572914Q237.73438 64.385414 238.17188 64.791664Q238.625 65.197914 239.26562 65.197914Q240.01562 65.197914 240.54688 64.61979Q241.07812 64.041664 241.07812 63.104164Q241.07812 62.197914 240.5625 61.68229Q240.0625 61.15104 239.23438 61.15104Q238.73438 61.15104 238.3125 61.385414Q237.90625 61.61979 237.67188 61.979164L236.6875 61.854164L237.51562 57.447914L241.79688 57.447914L241.79688 58.447914L238.35938 58.447914L237.90625 60.760414Q238.67188 60.21354 239.51562 60.21354Q240.64062 60.21354 241.40625 60.99479Q242.1875 61.77604 242.1875 63.010414Q242.1875 64.166664 241.51562 65.02604Q240.6875 66.05729 239.26562 66.05729Q238.09375 66.05729 237.34375 65.40104Q236.60938 64.74479 236.5 63.666664ZM249.04688 64.90104L249.04688 65.916664L243.35938 65.916664Q243.35938 65.541664 243.48438 65.18229Q243.70312 64.604164 244.17188 64.041664Q244.65625 63.479164 245.5625 62.74479Q246.96875 61.58854 247.45312 60.916664Q247.95312 60.24479 247.95312 59.65104Q247.95312 59.02604 247.5 58.604164Q247.04688 58.166664 246.32812 58.166664Q245.5625 58.166664 245.10938 58.61979Q244.65625 59.072914 244.64062 59.885414L243.5625 59.77604Q243.67188 58.55729 244.39062 57.93229Q245.125 57.291664 246.35938 57.291664Q247.59375 57.291664 248.3125 57.979164Q249.03125 58.666664 249.03125 59.68229Q249.03125 60.197914 248.8125 60.697914Q248.60938 61.18229 248.10938 61.74479Q247.625 62.291664 246.5 63.24479Q245.54688 64.041664 245.26562 64.33854Q245.0 64.61979 244.82812 64.90104L249.04688 64.90104ZM250.375 58.90104L250.64062 58.072914Q251.57812 58.40104 252.0 58.635414Q251.89062 57.572914 251.875 57.18229L252.73438 57.18229Q252.71875 57.760414 252.59375 58.635414Q253.20312 58.322914 253.98438 58.072914L254.25 58.90104Q253.5 59.15104 252.79688 59.229164Q253.14062 59.541664 253.79688 60.33854L253.09375 60.83854Q252.75 60.36979 252.29688 59.572914Q251.85938 60.40104 251.53125 60.83854L250.84375 60.33854Q251.51562 59.49479 251.8125 59.229164Q251.0625 59.08854 250.375 58.90104ZM255.09375 65.916664L257.35938 62.68229L255.26562 59.697914L256.57812 59.697914L257.53125 61.15104Q257.79688 61.572914 257.96875 61.854164Q258.21875 61.46354 258.4375 61.166664L259.48438 59.697914L260.75 59.697914L258.59375 62.61979L260.90625 65.916664L259.625 65.916664L258.34375 63.979164L258.0 63.46354L256.35938 65.916664L255.09375 65.916664ZM266.0 64.52604L266.0 62.166664L263.67188 62.166664L263.67188 61.18229L266.0 61.18229L266.0 58.854164L267.0 58.854164L267.0 61.18229L269.34375 61.18229L269.34375 62.166664L267.0 62.166664L267.0 64.52604L266.0 64.52604ZM277.46875 65.916664L276.42188 65.916664L276.42188 59.197914Q276.03125 59.55729 275.40625 59.93229Q274.79688 60.291664 274.3125 60.46354L274.3125 59.447914Q275.1875 59.02604 275.84375 58.447914Q276.51562 57.854164 276.79688 57.291664L277.46875 57.291664L277.46875 65.916664ZM281.09375 65.916664L281.09375 64.71354L282.29688 64.71354L282.29688 65.916664L281.09375 65.916664ZM286.875 65.916664L286.875 63.854164L283.15625 63.854164L283.15625 62.885414L287.07812 57.322914L287.9375 57.322914L287.9375 62.885414L289.09375 62.885414L289.09375 63.854164L287.9375 63.854164L287.9375 65.916664L286.875 65.916664ZM286.875 62.885414L286.875 59.02604L284.1875 62.885414L286.875 62.885414ZM292.125 61.260414Q291.46875 61.010414 291.14062 60.572914Q290.82812 60.11979 290.82812 59.510414Q290.82812 58.572914 291.5 57.93229Q292.1875 57.291664 293.29688 57.291664Q294.42188 57.291664 295.10938 57.947914Q295.79688 58.604164 295.79688 59.541664Q295.79688 60.135414 295.48438 60.572914Q295.17188 61.010414 294.53125 61.260414Q295.32812 61.510414 295.73438 62.08854Q296.14062 62.666664 296.14062 63.46354Q296.14062 64.55729 295.35938 65.30729Q294.59375 66.05729 293.3125 66.05729Q292.04688 66.05729 291.26562 65.30729Q290.48438 64.55729 290.48438 63.43229Q290.48438 62.58854 290.90625 62.02604Q291.34375 61.46354 292.125 61.260414ZM291.90625 59.46354Q291.90625 60.072914 292.29688 60.46354Q292.70312 60.854164 293.32812 60.854164Q293.9375 60.854164 294.32812 60.479164Q294.71875 60.08854 294.71875 59.52604Q294.71875 58.947914 294.3125 58.55729Q293.90625 58.15104 293.3125 58.15104Q292.70312 58.15104 292.29688 58.541664Q291.90625 58.93229 291.90625 59.46354ZM291.57812 63.43229Q291.57812 63.885414 291.78125 64.30729Q292.0 64.729164 292.42188 64.96354Q292.84375 65.197914 293.32812 65.197914Q294.07812 65.197914 294.5625 64.71354Q295.0625 64.229164 295.0625 63.479164Q295.0625 62.71354 294.5625 62.21354Q294.0625 61.71354 293.29688 61.71354Q292.54688 61.71354 292.0625 62.21354Q291.57812 62.697914 291.57812 63.43229Z" fill-rule="nonzero"/><path fill="#ea4335" d="M325.0 61.916668C325.0 65.23038 322.31372 67.916664 319.0 67.916664C315.68628 67.916664 313.0 65.23038 313.0 61.916668C313.0 58.60296 315.68628 55.916668 319.0 55.916668C322.31372 55.916668 325.0 58.60296 325.0 61.916668Z" fill-rule="nonzero"/><path fill="#1a1a1a" d="M335.51562 65.916664L333.15625 59.697914L334.26562 59.697914L335.60938 63.416664Q335.8125 64.02604 336.0 64.666664Q336.14062 64.18229 336.39062 63.49479L337.78125 59.697914L338.85938 59.697914L336.5 65.916664L335.51562 65.916664ZM337.8125 68.30729L337.8125 67.541664L344.8125 67.541664L344.8125 68.30729L337.8125 68.30729ZM345.75 68.30729L345.625 67.322914Q345.96875 67.416664 346.23438 67.416664Q346.57812 67.416664 346.78125 67.291664Q347.0 67.18229 347.14062 66.979164Q347.23438 66.80729 347.46875 66.18229Q347.48438 66.104164 347.5625 65.93229L345.1875 59.697914L346.32812 59.697914L347.625 63.291664Q347.875 63.979164 348.07812 64.74479Q348.26562 64.010414 348.51562 63.322914L349.84375 59.697914L350.89062 59.697914L348.53125 66.02604Q348.14062 67.041664 347.9375 67.43229Q347.65625 67.96354 347.28125 68.197914Q346.92188 68.447914 346.42188 68.447914Q346.125 68.447914 345.75 68.30729Z" fill-rule="nonzero"/><path stroke="#ea4335" stroke-width="4.0" stroke-linecap="butt" stroke-opacity="0.4" d="M366.0 61.916668L378.0 61.916668" fill-rule="nonzero"/><path fill="#1a1a1a" d="M386.375 63.33854L386.375 62.27604L389.625 62.27604L389.625 63.33854L386.375 63.33854ZM390.65625 63.93229L391.67188 63.83854Q391.79688 64.55729 392.15625 64.885414Q392.53125 65.197914 393.09375 65.197914Q393.57812 65.197914 393.9375 64.979164Q394.3125 64.74479 394.54688 64.385414Q394.78125 64.010414 394.9375 63.385414Q395.09375 62.74479 395.09375 62.08854Q395.09375 62.010414 395.09375 61.86979Q394.78125 62.36979 394.23438 62.697914Q393.6875 63.010414 393.04688 63.010414Q391.96875 63.010414 391.23438 62.24479Q390.5 61.46354 390.5 60.197914Q390.5 58.885414 391.26562 58.08854Q392.04688 57.291664 393.20312 57.291664Q394.03125 57.291664 394.71875 57.74479Q395.42188 58.197914 395.78125 59.041664Q396.14062 59.86979 396.14062 61.447914Q396.14062 63.08854 395.78125 64.072914Q395.4375 65.041664 394.71875 65.55729Q394.01562 66.05729 393.07812 66.05729Q392.0625 66.05729 391.42188 65.510414Q390.78125 64.947914 390.65625 63.93229ZM394.96875 60.135414Q394.96875 59.229164 394.48438 58.697914Q394.01562 58.166664 393.32812 58.166664Q392.625 58.166664 392.09375 58.74479Q391.57812 59.30729 391.57812 60.229164Q391.57812 61.041664 392.07812 61.55729Q392.57812 62.072914 393.29688 62.072914Q394.03125 62.072914 394.5 61.55729Q394.96875 61.041664 394.96875 60.135414ZM398.09375 65.916664L398.09375 64.71354L399.29688 64.71354L399.29688 65.916664L398.09375 65.916664ZM402.125 61.260414Q401.46875 61.010414 401.14062 60.572914Q400.82812 60.11979 400.82812 59.510414Q400.82812 58.572914 401.5 57.93229Q402.1875 57.291664 403.29688 57.291664Q404.42188 57.291664 405.10938 57.947914Q405.79688 58.604164 405.79688 59.541664Q405.79688 60.135414 405.48438 60.572914Q405.17188 61.010414 404.53125 61.260414Q405.32812 61.510414 405.73438 62.08854Q406.14062 62.666664 406.14062 63.46354Q406.14062 64.55729 405.35938 65.30729Q404.59375 66.05729 403.3125 66.05729Q402.04688 66.05729 401.26562 65.30729Q400.48438 64.55729 400.48438 63.43229Q400.48438 62.58854 400.90625 62.02604Q401.34375 61.46354 402.125 61.260414ZM401.90625 59.46354Q401.90625 60.072914 402.29688 60.46354Q402.70312 60.854164 403.32812 60.854164Q403.9375 60.854164 404.32812 60.479164Q404.71875 60.08854 404.71875 59.52604Q404.71875 58.947914 404.3125 58.55729Q403.90625 58.15104 403.3125 58.15104Q402.70312 58.15104 402.29688 58.541664Q401.90625 58.93229 401.90625 59.46354ZM401.57812 63.43229Q401.57812 63.885414 401.78125 64.30729Q402.0 64.729164 402.42188 64.96354Q402.84375 65.197914 403.32812 65.197914Q404.07812 65.197914 404.5625 64.71354Q405.0625 64.229164 405.0625 63.479164Q405.0625 62.71354 404.5625 62.21354Q404.0625 61.71354 403.29688 61.71354Q402.54688 61.71354 402.0625 62.21354Q401.57812 62.697914 401.57812 63.43229ZM411.46875 65.916664L410.42188 65.916664L410.42188 59.197914Q410.03125 59.55729 409.40625 59.93229Q408.79688 60.291664 408.3125 60.46354L408.3125 59.447914Q409.1875 59.02604 409.84375 58.447914Q410.51562 57.854164 410.79688 57.291664L411.46875 57.291664L411.46875 65.916664ZM414.375 58.90104L414.64062 58.072914Q415.57812 58.40104 416.0 58.635414Q415.89062 57.572914 415.875 57.18229L416.73438 57.18229Q416.71875 57.760414 416.59375 58.635414Q417.20312 58.322914 417.98438 58.072914L418.25 58.90104Q417.5 59.15104 416.79688 59.229164Q417.14062 59.541664 417.79688 60.33854L417.09375 60.83854Q416.75 60.36979 416.29688 59.572914Q415.85938 60.40104 415.53125 60.83854L414.84375 60.33854Q415.51562 59.49479 415.8125 59.229164Q415.0625 59.08854 414.375 58.90104ZM419.09375 65.916664L421.35938 62.68229L419.26562 59.697914L420.57812 59.697914L421.53125 61.15104Q421.79688 61.572914 421.96875 61.854164Q422.21875 61.46354 422.4375 61.166664L423.48438 59.697914L424.75 59.697914L422.59375 62.61979L424.90625 65.916664L423.625 65.916664L422.34375 63.979164L422.0 63.46354L420.35938 65.916664L419.09375 65.916664ZM430.0 64.52604L430.0 62.166664L427.67188 62.166664L427.67188 61.18229L430.0 61.18229L430.0 58.854164L431.0 58.854164L431.0 61.18229L433.34375 61.18229L433.34375 62.166664L431.0 62.166664L431.0 64.52604L430.0 64.52604ZM441.46875 65.916664L440.42188 65.916664L440.42188 59.197914Q440.03125 59.55729 439.40625 59.93229Q438.79688 60.291664 438.3125 60.46354L438.3125 59.447914Q439.1875 59.02604 439.84375 58.447914Q440.51562 57.854164 440.79688 57.291664L441.46875 57.291664L441.46875 65.916664ZM445.09375 65.916664L445.09375 64.71354L446.29688 64.71354L446.29688 65.916664L445.09375 65.916664ZM447.65625 63.93229L448.67188 63.83854Q448.79688 64.55729 449.15625 64.885414Q449.53125 65.197914 450.09375 65.197914Q450.57812 65.197914 450.9375 64.979164Q451.3125 64.74479 451.54688 64.385414Q451.78125 64.010414 451.9375 63.385414Q452.09375 62.74479 452.09375 62.08854Q452.09375 62.010414 452.09375 61.86979Q451.78125 62.36979 451.23438 62.697914Q450.6875 63.010414 450.04688 63.010414Q448.96875 63.010414 448.23438 62.24479Q447.5 61.46354 447.5 60.197914Q447.5 58.885414 448.26562 58.08854Q449.04688 57.291664 450.20312 57.291664Q451.03125 57.291664 451.71875 57.74479Q452.42188 58.197914 452.78125 59.041664Q453.14062 59.86979 453.14062 61.447914Q453.14062 63.08854 452.78125 64.072914Q452.4375 65.041664 451.71875 65.55729Q451.01562 66.05729 450.07812 66.05729Q449.0625 66.05729 448.42188 65.510414Q447.78125 64.947914 447.65625 63.93229ZM451.96875 60.135414Q451.96875 59.229164 451.48438 58.697914Q451.01562 58.166664 450.32812 58.166664Q449.625 58.166664 449.09375 58.74479Q448.57812 59.30729 448.57812 60.229164Q448.57812 61.041664 449.07812 61.55729Q449.57812 62.072914 450.29688 62.072914Q451.03125 62.072914 451.5 61.55729Q451.96875 61.041664 451.96875 60.135414ZM454.5 63.65104L455.5625 63.510414Q455.73438 64.40104 456.17188 64.80729Q456.60938 65.197914 457.23438 65.197914Q457.98438 65.197914 458.5 64.68229Q459.01562 64.166664 459.01562 63.40104Q459.01562 62.68229 458.53125 62.21354Q458.0625 61.729164 457.32812 61.729164Q457.03125 61.729164 456.57812 61.854164L456.70312 60.916664Q456.8125 60.93229 456.875 60.93229Q457.54688 60.93229 458.07812 60.58854Q458.625 60.229164 458.625 59.49479Q458.625 58.916664 458.23438 58.541664Q457.84375 58.15104 457.21875 58.15104Q456.60938 58.15104 456.1875 58.541664Q455.78125 58.93229 455.67188 59.697914L454.60938 59.510414Q454.79688 58.46354 455.48438 57.885414Q456.17188 57.291664 457.1875 57.291664Q457.89062 57.291664 458.48438 57.604164Q459.07812 57.90104 459.39062 58.416664Q459.70312 58.93229 459.70312 59.52604Q459.70312 60.072914 459.40625 60.541664Q459.10938 60.99479 458.53125 61.260414Q459.28125 61.43229 459.70312 61.99479Q460.125 62.541664 460.125 63.385414Q460.125 64.510414 459.29688 65.291664Q458.48438 66.072914 457.23438 66.072914Q456.10938 66.072914 455.35938 65.40104Q454.60938 64.71354 454.5 63.65104Z" fill-rule="nonzero"/><path fill="#757575" d="M22.753124 37.55L18.8 27.175L20.659374 27.175L22.89375 33.39375Q23.253124 34.39375 23.55 35.471874Q23.784374 34.659374 24.20625 33.503124L26.503124 27.175L28.315624 27.175L24.39375 37.55L22.753124 37.55ZM27.253124 41.51875L27.253124 40.253124L38.89375 40.253124L38.89375 41.51875L27.253124 41.51875ZM38.690624 37.55L42.4875 32.159374L38.9875 27.175L41.175 27.175L42.76875 29.6125Q43.221874 30.3 43.4875 30.76875Q43.925 30.128124 44.284374 29.628124L46.034374 27.175L48.128124 27.175L44.55 32.065624L48.409374 37.55L46.253124 37.55L44.1125 34.33125L43.55 33.45625L40.83125 37.55L38.690624 37.55ZM61.64375 36.26875Q60.659374 37.096874 59.753124 37.440624Q58.846874 37.784374 57.815624 37.784374Q56.1125 37.784374 55.190624 36.95625Q54.26875 36.1125 54.26875 34.815624Q54.26875 34.05 54.6125 33.425Q54.971874 32.8 55.534374 32.425Q56.096874 32.034374 56.8 31.83125Q57.315624 31.70625 58.3625 31.565624Q60.4875 31.315624 61.4875 30.971874Q61.503124 30.6125 61.503124 30.503124Q61.503124 29.440624 61.003124 28.9875Q60.33125 28.39375 59.003124 28.39375Q57.753124 28.39375 57.159374 28.83125Q56.58125 29.26875 56.3 30.378124L54.58125 30.14375Q54.815624 29.034374 55.346874 28.3625Q55.878124 27.675 56.89375 27.315624Q57.909374 26.940624 59.253124 26.940624Q60.58125 26.940624 61.409374 27.253124Q62.2375 27.565624 62.628124 28.05Q63.01875 28.51875 63.175 29.2375Q63.26875 29.690624 63.26875 30.8625L63.26875 33.20625Q63.26875 35.659374 63.378124 36.315624Q63.4875 36.95625 63.83125 37.55L61.9875 37.55Q61.721874 37.003124 61.64375 36.26875ZM61.4875 32.346874Q60.534374 32.7375 58.6125 33.003124Q57.534374 33.159374 57.08125 33.3625Q56.64375 33.55 56.39375 33.925Q56.14375 34.3 56.14375 34.76875Q56.14375 35.471874 56.675 35.940624Q57.20625 36.409374 58.2375 36.409374Q59.253124 36.409374 60.034374 35.971874Q60.83125 35.51875 61.20625 34.753124Q61.4875 34.14375 61.4875 32.9875L61.4875 32.346874ZM65.8625 37.55L65.8625 27.175L67.45625 27.175L67.45625 28.659374Q68.59688 26.940624 70.75313 26.940624Q71.69063 26.940624 72.47188 27.284374Q73.26875 27.6125 73.65938 28.159374Q74.05 28.70625 74.20625 29.45625Q74.3 29.95625 74.3 31.175L74.3 37.55L72.53438 37.55L72.53438 31.2375Q72.53438 30.159374 72.33125 29.628124Q72.12813 29.096874 71.59688 28.784374Q71.08125 28.471874 70.37813 28.471874Q69.25313 28.471874 68.44063 29.190624Q67.62813 29.89375 67.62813 31.878124L67.62813 37.55L65.8625 37.55ZM82.59688 37.55L82.59688 36.2375Q81.6125 37.784374 79.69063 37.784374Q78.45625 37.784374 77.40938 37.096874Q76.37813 36.409374 75.8 35.190624Q75.2375 33.971874 75.2375 32.378124Q75.2375 30.815624 75.75313 29.55Q76.26875 28.284374 77.3 27.6125Q78.34688 26.940624 79.6125 26.940624Q80.55 26.940624 81.28438 27.346874Q82.01875 27.7375 82.4875 28.3625L82.4875 23.2375L84.22188 23.2375L84.22188 37.55L82.59688 37.55ZM77.03438 32.378124Q77.03438 34.3625 77.87813 35.346874Q78.72188 36.33125 79.8625 36.33125Q81.01875 36.33125 81.81563 35.39375Q82.62813 34.45625 82.62813 32.51875Q82.62813 30.39375 81.8 29.39375Q80.9875 28.39375 79.78438 28.39375Q78.6125 28.39375 77.81563 29.3625Q77.03438 30.315624 77.03438 32.378124ZM95.75313 37.55L91.8 27.175L93.65938 27.175L95.89375 33.39375Q96.25313 34.39375 96.55 35.471874Q96.78438 34.659374 97.20625 33.503124L99.50313 27.175L101.31563 27.175L97.39375 37.55L95.75313 37.55ZM100.25313 41.51875L100.25313 40.253124L111.89375 40.253124L111.89375 41.51875L100.25313 41.51875ZM112.78438 41.55L112.59688 39.89375Q113.175 40.05 113.59688 40.05Q114.19063 40.05 114.53438 39.846874Q114.89375 39.659374 115.1125 39.315624Q115.28438 39.05 115.65938 38.003124Q115.70625 37.846874 115.81563 37.565624L111.87813 27.175L113.76875 27.175L115.925 33.190624Q116.34688 34.33125 116.675 35.58125Q116.9875 34.378124 117.39375 33.221874L119.6125 27.175L121.37813 27.175L117.425 37.721874Q116.8 39.440624 116.44063 40.08125Q115.97188 40.95625 115.3625 41.346874Q114.76875 41.753124 113.925 41.753124Q113.40938 41.753124 112.78438 41.55Z" fill-rule="nonzero"/></svg>